<svg t="1621936471826" class="icon" viewBox="0 0 1024 1024" version="1.1" xmlns="http://www.w3.org/2000/svg" p-id="2373" width="32" height="32"><path d="M765.5168 538.88a31.488 31.488 0 0 0-31.5136 31.5136v211.072l0.0768 0.8448c0.0768 1.2032 0.256 2.3552 0.5632 3.584a14.2592 14.2592 0 0 1-0.512 5.0944l-0.256 0.0768a29.952 29.952 0 0 1-7.3728 0.768l-134.0416-0.0256-0.8448-142.08c2.176-17.9968-1.024-38.9632-14.4896-55.168-10.0864-12.1088-25.1904-19.8144-45.2864-19.8144h-54.7072c-20.0704 0-35.2 7.68-45.2864 19.8144l-3.1488 4.0448c-10.8032 15.2064-13.2864 34.0224-11.2896 51.8656l-0.896 140.9024h-134.4768c-4.864 0-7.9616-0.768-8.0384-0.8192 0.2048 0.1792-0.256-3.2256 0.0256-5.3248a14.2336 14.2336 0 0 0 0.4608-3.2l0.0512-2.2016v-208.9984a31.488 31.488 0 0 0-31.5136-31.488 31.488 31.488 0 0 0-31.5136 31.488V773.12c-2.6112 16.896 0.6912 37.248 14.0288 53.4016 11.8272 14.464 30.208 23.3984 56.064 23.3984h165.4784c15.2832 0 31.5136-12.2368 31.5136-22.528l0.896-176.1024-0.0512-4.6336a14.72 14.72 0 0 0-0.7168-4.736l0.2048-4.1472h48.6656c0.2048 1.9456 0.2816 4.0192 0.128 5.5296l-0.2048 0.512c-0.256 0.896-0.256 2.8928-0.256 13.1328l0.8704 170.4704c0 10.2656 16.256 22.528 31.5136 22.528h165.504c25.5488 0 43.6736-8.96 55.9872-23.3472 13.4144-16.2304 16.7168-36.5824 14.0288-54.4256l1.8688-201.728a31.488 31.488 0 0 0-31.5136-31.5648z" p-id="2374" fill="#EE2626"></path><path d="M510.4896 171.5712c-31.9488-0.896-62.336 12.5952-89.856 39.808l-18.7904 19.6352L129.5104 519.2192c-11.9296 12.5184-11.4176 32.6144 0.896 44.928 4.8384 4.864 11.2896 7.7056 18.432 8.448l4.48 0.1536c7.2192 0 14.1824-2.7904 19.712-7.68l2.4832-2.4576 285.184-302.208c16.4352-17.28 32.3328-25.7536 46.7456-25.344 9.2672 0.1536 18.2528 3.7888 26.7008 9.8048 2.9184 2.0736 5.5552 4.3008 7.936 6.6048l1.92 1.8944 2.6112 2.688 285.5168 306.5856c6.4 6.4 14.7456 10.112 23.0912 10.112 8.1408 0 15.9744-2.9952 21.5552-8.6016 12.7232-12.16 13.7472-31.8208 1.9968-44.7232L593.9456 213.0688a134.8352 134.8352 0 0 0-26.368-22.4c-15.2832-10.0352-32.0256-16.64-50.1504-18.5856l-6.912-0.512z" p-id="2375" fill="#EE2626"></path></svg>