<svg t="1621937326068" class="icon" viewBox="0 0 1024 1024" version="1.1" xmlns="http://www.w3.org/2000/svg" p-id="3425" width="32" height="32"><path d="M496 704h-128c-17.6 0-32 14.4-32 32s14.4 32 32 32h128c17.6 0 32-14.4 32-32s-14.4-32-32-32zM656 544H368c-17.6 0-32 14.4-32 32s14.4 32 32 32h288c17.6 0 32-14.4 32-32s-14.4-32-32-32zM656 384H368c-17.6 0-32 14.4-32 32s14.4 32 32 32h288c17.6 0 32-14.4 32-32s-14.4-32-32-32z" fill="#EE2626" p-id="3426"></path><path d="M720 144h-22.4c-12.8-36.8-48-64-89.6-64H416c-41.6 0-76.8 27.2-89.6 64H304C216 144 144 216 144 304v480c0 88 72 160 160 160h416c88 0 160-72 160-160V304c0-88-72-160-160-160zM416 144h192c17.6 0 32 14.4 32 32s-14.4 32-32 32H416c-17.6 0-32-14.4-32-32s14.4-32 32-32z m400 640c0 52.8-43.2 96-96 96H304c-52.8 0-96-43.2-96-96V304c0-52.8 43.2-96 96-96h22.4c12.8 36.8 48 64 89.6 64h192c41.6 0 76.8-27.2 89.6-64H720c52.8 0 96 43.2 96 96v480z" fill="#EE2626" p-id="3427"></path></svg>